# xmcd
#
# Track frame offsets:
#	150
#	19843
#	35616
#	57298
#	78964
#	97189
#	116320
#	136022
#	153085
#	170095
#	184258
#	201143
#
# Disc length: 2922 seconds
#
# Revision: 3
# Processed by: cddbd v1.4PL0 Copyright (c) Steve Scherf et al.
# Submitted via: audiograbber 1.80
#
DISCID=980b680c
DTITLE=Toni Braxton - The Heat
DYEAR=1900
DGENRE=
TTITLE0=He Wasn't Man Enough
TTITLE1=The Heat
TTITLE2=Spanish Guitar
TTITLE3=Just Be A Man About It (feat. Dr. Dre)
TTITLE4=Gimme Some (feat. Left Eye)
TTITLE5=I'm Still Breathing
TTITLE6=Fairy Tale
TTITLE7=The Art of Love
TTITLE8=Speaking In Tongues
TTITLE9=Maybe
TTITLE10=You've Been Wrong
TTITLE11=Never Just for a Ring
EXTD=
EXTT0=
EXTT1=
EXTT2=
EXTT3=
EXTT4=
EXTT5=
EXTT6=
EXTT7=
EXTT8=
EXTT9=
EXTT10=
EXTT11=
PLAYORDER=
